# xmcd
#
# Track frame offsets:
#	150
#	2861
#	18945
#	37098
#	40509
#	62120
#	89971
#	95155
#	112908
#	133191
#	137497
#	166934
#	187360
#	200460
#	202596
#	222451
#
# Disc length: 2992 seconds
# Revision: 0
# Processed by: cddbd v1.5.2PL0 Copyright (c) Steve Scherf et al.
# Submitted via: dBpowerAMP V12.0
#
DISCID=e90bae10
DTITLE=Ian Siegal - The Picnic Sessions
DYEAR=2014
DGENRE=Blues
TTITLE0=Pistachio Anyone?
TTITLE1=Stone Cold Soul
TTITLE2=How Come Your Still Here?
TTITLE3=Sweet Pea
TTITLE4=Heavenly Houseboat Blues
TTITLE5=Beulah Land
TTITLE6=Turn Around And Show It To Me
TTITLE7=Keen And Peachy
TTITLE8=Wasted Freedom
TTITLE9=Herman Sings
TTITLE10=Gallo Del Cielo
TTITLE11=Hard Times (Come Again No More)
TTITLE12=Talkin' Overseas Pirate Blues
TTITLE13=Now It's A Party!
TTITLE14=Only Tryin' To Survive
TTITLE15=Appreciation
EXTD=
EXTT0=
EXTT1=
EXTT2=
EXTT3=
EXTT4=
EXTT5=
EXTT6=
EXTT7=
EXTT8=
EXTT9=
EXTT10=
EXTT11=
EXTT12=
EXTT13=
EXTT14=
EXTT15=
PLAYORDER=
